<svg id="Capa_1" enable-background="new 0 0 512 512" height="512" viewBox="0 0 512 512" width="512" xmlns="http://www.w3.org/2000/svg"><g><path d="m36.636 266.451 8.364 5.61 8.364-5.61c3.75-2.519 36.636-25.517 36.636-57.451s-32.886-54.932-36.636-57.451l-8.364-5.611-8.364 5.61c-3.75 2.52-36.636 25.518-36.636 57.452s32.886 54.932 36.636 57.451z"/><path d="m130.283 195.538c22.156 4.358 50.442 1.386 66.533-14.722 22.588-22.573 15.586-62.095 14.722-66.533l-1.948-9.873-9.873-1.948c-4.438-.894-43.989-7.881-66.533 14.722-22.588 22.573-15.586 62.095-14.722 66.533l1.948 9.873z"/><path d="m490.789 33-229.032 229.126c-37.359-33.129-92.571-34.999-132.012-5.544l158.807 158.807c13.528-18.036 21.189-39.644 21.189-62.6 0-25.941-9.706-50.202-26.796-69.428l229.055-229.15z"/><path d="m45 479h30v-30h-30c-8.276 0-15-6.724-15-15v-15h-30v15c0 24.814 20.186 45 45 45z"/><path d="m65.039 319.142c-11.338 11.323-31.099 11.338-42.437 0l-21.21 21.211 17.897 17.895.214-.214c24.551 24.551 67.368 24.551 91.919 0l38.677-38.677-42.638-42.636z"/><path d="m171.255 418.473 38.976-38.983-38.921-38.923-38.677 38.677c-17.362 17.362-40.307 26.977-64.753 27.596l12.479 12.479c25.414 24.382 65.876 24.173 90.896-.846z"/><path d="m257.769 448.238 10.605-10.605-36.932-36.933-38.976 38.983c-16.069 16.069-36.553 24.732-57.583 26.856 14.888 7.848 31.337 12.46 48.647 12.46 28.052.001 54.419-10.927 74.239-30.761z"/></g></svg>