<svg id="Capa_1" enable-background="new 0 0 512 512" height="512" viewBox="0 0 512 512" width="512" xmlns="http://www.w3.org/2000/svg"><g><path d="m406 30v-30h-180v30h-90v377.583c-17.241-16.363-40.525-26.417-66.115-26.417h-53.885v34.72c0 25.687 9.788 49.791 27.56 67.871 17.903 18.213 41.895 28.243 67.555 28.243h24.885 30 24.885 305.115v-482zm-150 0h120v30h-120zm-120 452h-24.885c-36.513 0-65.115-29.041-65.115-66.114v-4.72h23.885c36.456 0 66.115 29.659 66.115 66.115zm30 0v-4.719c0-36.456 29.659-66.115 66.115-66.115h23.885v4.72c0 37.073-28.602 66.114-65.115 66.114zm300 0h-205.877c16.706-17.87 25.877-41.251 25.877-66.114v-34.72h-53.885c-25.59 0-48.874 10.054-66.115 26.417v-347.583h60v30h180v-30h60z"/><path d="m271 165h150v30h-150z"/><path d="m271 255h150v30h-150z"/><path d="m211 255h30v30h-30z"/><path d="m211 165h30v30h-30z"/></g></svg>